<svg viewBox="0 0 56.693 56.693" xml:space="preserve" xmlns="http://www.w3.org/2000/svg"><path d="M28.347 5.155c-13.6 0-24.625 11.025-24.625 24.625 0 13.602 11.024 24.625 24.625 24.625 13.602 0 24.625-11.023 24.625-24.625 0-13.6-11.024-24.625-24.625-24.625zM20.71 40.89a3.238 3.238 0 1 1 .002-6.476 3.238 3.238 0 0 1-.002 6.476zm8.123.021c0-3.057-1.182-5.928-3.33-8.082a11.247 11.247 0 0 0-8.028-3.342v-4.674c8.84 0 16.03 7.223 16.03 16.098h-4.672zm8.256.004c0-10.867-8.795-19.711-19.606-19.711v-4.676c13.387 0 24.28 10.942 24.28 24.387h-4.674z" fill="#ffffff" class="fill-000000"></path></svg>